<svg xmlns="http://www.w3.org/2000/svg" xmlns:svg="http://www.w3.org/2000/svg" id="svg2" width="210mm" height="297mm" version="1.1" viewBox="0 0 744.094 1052.362"><defs id="defs4"><marker id="marker4423" orient="auto" refX="0" refY="0" style="overflow:visible"><path id="path4425" d="M 0.0,0.0 L 5.0,-5.0 L -12.5,0.0 L 5.0,5.0 L 0.0,0.0 z" style="fill-rule:evenodd;stroke:#000;stroke-width:1pt;stroke-opacity:1;fill:#000;fill-opacity:1" transform="scale(0.8) rotate(180) translate(12.5,0)"/></marker><marker style="overflow:visible" id="marker5093" orient="auto" refX="0" refY="0"><path transform="scale(0.8) rotate(180) translate(12.5,0)" style="fill-rule:evenodd;stroke:#000;stroke-width:1pt;stroke-opacity:1;fill:#000;fill-opacity:1" id="path5095" d="M 0.0,0.0 L 5.0,-5.0 L -12.5,0.0 L 5.0,5.0 L 0.0,0.0 z"/></marker><marker id="Arrow1Lend" orient="auto" refX="0" refY="0" style="overflow:visible"><path id="path4174" d="M 0.0,0.0 L 5.0,-5.0 L -12.5,0.0 L 5.0,5.0 L 0.0,0.0 z" style="fill-rule:evenodd;stroke:#000;stroke-width:1pt;stroke-opacity:1;fill:#000;fill-opacity:1" transform="scale(0.8) rotate(180) translate(12.5,0)"/></marker><marker id="Arrow1Lend-0" orient="auto" refX="0" refY="0" style="overflow:visible"><path id="path4174-1" d="M 0,0 5,-5 -12.5,0 5,5 0,0 Z" style="fill:#000;fill-opacity:1;fill-rule:evenodd;stroke:#000;stroke-width:1pt;stroke-opacity:1" transform="matrix(-0.8,0,0,-0.8,-10,0)"/></marker><marker id="Arrow1Lend-4" orient="auto" refX="0" refY="0" style="overflow:visible"><path id="path4174-19" d="M 0,0 5,-5 -12.5,0 5,5 0,0 Z" style="fill:#000;fill-opacity:1;fill-rule:evenodd;stroke:#000;stroke-width:1pt;stroke-opacity:1" transform="matrix(-0.8,0,0,-0.8,-10,0)"/></marker><marker id="Arrow1Lend-05" orient="auto" refX="0" refY="0" style="overflow:visible"><path id="path4174-7" d="M 0,0 5,-5 -12.5,0 5,5 0,0 Z" style="fill:#000;fill-opacity:1;fill-rule:evenodd;stroke:#000;stroke-width:1pt;stroke-opacity:1" transform="matrix(-0.8,0,0,-0.8,-10,0)"/></marker><marker id="Arrow1Lend-05-8" orient="auto" refX="0" refY="0" style="overflow:visible"><path id="path4174-7-7" d="M 0,0 5,-5 -12.5,0 5,5 0,0 Z" style="fill:#000;fill-opacity:1;fill-rule:evenodd;stroke:#000;stroke-width:1pt;stroke-opacity:1" transform="matrix(-0.8,0,0,-0.8,-10,0)"/></marker><marker id="Arrow1Lend-05-0" orient="auto" refX="0" refY="0" style="overflow:visible"><path id="path4174-7-8" d="M 0,0 5,-5 -12.5,0 5,5 0,0 Z" style="fill:#000;fill-opacity:1;fill-rule:evenodd;stroke:#000;stroke-width:1pt;stroke-opacity:1" transform="matrix(-0.8,0,0,-0.8,-10,0)"/></marker><marker id="Arrow1Lend-05-6" orient="auto" refX="0" refY="0" style="overflow:visible"><path id="path4174-7-2" d="M 0,0 5,-5 -12.5,0 5,5 0,0 Z" style="fill:#000;fill-opacity:1;fill-rule:evenodd;stroke:#000;stroke-width:1pt;stroke-opacity:1" transform="matrix(-0.8,0,0,-0.8,-10,0)"/></marker><marker id="Arrow1Lend-05-9" orient="auto" refX="0" refY="0" style="overflow:visible"><path id="path4174-7-6" d="M 0,0 5,-5 -12.5,0 5,5 0,0 Z" style="fill:#000;fill-opacity:1;fill-rule:evenodd;stroke:#000;stroke-width:1pt;stroke-opacity:1" transform="matrix(-0.8,0,0,-0.8,-10,0)"/></marker><marker id="Arrow1Lend-5-9" orient="auto" refX="0" refY="0" style="overflow:visible"><path id="path4174-0-3" d="M 0,0 5,-5 -12.5,0 5,5 0,0 Z" style="fill:#000;fill-opacity:1;fill-rule:evenodd;stroke:#000;stroke-width:1pt;stroke-opacity:1" transform="matrix(-0.8,0,0,-0.8,-10,0)"/></marker><marker id="Arrow1Lend-5-9-3" orient="auto" refX="0" refY="0" style="overflow:visible"><path id="path4174-0-3-3" d="M 0,0 5,-5 -12.5,0 5,5 0,0 Z" style="fill:#000;fill-opacity:1;fill-rule:evenodd;stroke:#000;stroke-width:1pt;stroke-opacity:1" transform="matrix(-0.8,0,0,-0.8,-10,0)"/></marker><marker id="Arrow1Lend-5-9-3-3" orient="auto" refX="0" refY="0" style="overflow:visible"><path id="path4174-0-3-3-2" d="M 0,0 5,-5 -12.5,0 5,5 0,0 Z" style="fill:#000;fill-opacity:1;fill-rule:evenodd;stroke:#000;stroke-width:1pt;stroke-opacity:1" transform="matrix(-0.8,0,0,-0.8,-10,0)"/></marker><marker id="Arrow1Lend-5-9-8" orient="auto" refX="0" refY="0" style="overflow:visible"><path id="path4174-0-3-9" d="M 0,0 5,-5 -12.5,0 5,5 0,0 Z" style="fill:#000;fill-opacity:1;fill-rule:evenodd;stroke:#000;stroke-width:1pt;stroke-opacity:1" transform="matrix(-0.8,0,0,-0.8,-10,0)"/></marker><marker style="overflow:visible" id="marker5093-1" orient="auto" refX="0" refY="0"><path transform="matrix(-0.8,0,0,-0.8,-10,0)" style="fill:#000;fill-opacity:1;fill-rule:evenodd;stroke:#000;stroke-width:1pt;stroke-opacity:1" id="path5095-9" d="M 0,0 5,-5 -12.5,0 5,5 0,0 Z"/></marker><marker id="marker4423-5" orient="auto" refX="0" refY="0" style="overflow:visible"><path id="path4425-3" d="M 0,0 5,-5 -12.5,0 5,5 0,0 Z" style="fill:#000;fill-opacity:1;fill-rule:evenodd;stroke:#000;stroke-width:1pt;stroke-opacity:1" transform="matrix(-0.8,0,0,-0.8,-10,0)"/></marker></defs><metadata id="metadata7"/><g id="layer1"><text xml:space="preserve" style="font-style:normal;font-weight:400;font-size:22px;line-height:125%;font-family:Sans;letter-spacing:0;word-spacing:0;fill:#000;fill-opacity:1;stroke:none;stroke-width:1px;stroke-linecap:butt;stroke-linejoin:miter;stroke-opacity:1" id="text3357" x="180.288" y="137.891"><tspan id="tspan3359" x="180.288" y="137.891">Anchor A</tspan></text><text xml:space="preserve" style="font-style:normal;font-weight:400;font-size:22px;line-height:125%;font-family:Sans;letter-spacing:0;word-spacing:0;fill:#000;fill-opacity:1;stroke:none;stroke-width:1px;stroke-linecap:butt;stroke-linejoin:miter;stroke-opacity:1" id="text3361" x="439.525" y="138.605"><tspan id="tspan3363" x="439.525" y="138.605">Anchor B</tspan></text><rect style="opacity:1;fill:none;fill-opacity:1;stroke:#000;stroke-width:3;stroke-linecap:round;stroke-linejoin:round;stroke-miterlimit:4;stroke-dasharray:none;stroke-dashoffset:0;stroke-opacity:1" id="rect3338" width="120" height="40.714" x="170.11" y="109.332"/><path style="fill:none;fill-rule:evenodd;stroke:#000;stroke-width:1px;stroke-linecap:butt;stroke-linejoin:miter;stroke-opacity:1;marker-end:url(#Arrow1Lend)" id="path3365" d="m 230.11024,148.61745 -0.25254,134.34901 109.85409,-1.01142 2.52538,129.29697"/><rect style="opacity:1;fill:none;fill-opacity:1;stroke:#000;stroke-width:3;stroke-linecap:round;stroke-linejoin:round;stroke-miterlimit:4;stroke-dasharray:none;stroke-dashoffset:0;stroke-opacity:1" id="rect3338-7" width="120" height="42.143" x="428.682" y="109.332"/><path style="fill:none;fill-rule:evenodd;stroke:#000;stroke-width:1px;stroke-linecap:butt;stroke-linejoin:miter;stroke-opacity:1;marker-end:url(#marker5093)" id="path3365-5" d="m 488.68167,150.04604 1.01015,133.84393 -114.14723,-0.50635 -1e-5,127.27667"/><rect style="opacity:1;fill:none;fill-opacity:1;stroke:#000;stroke-width:3;stroke-linecap:round;stroke-linejoin:round;stroke-miterlimit:4;stroke-dasharray:none;stroke-dashoffset:0;stroke-opacity:1" id="rect3338-0" width="120" height="100" x="188.993" y="479.451"/><path style="fill:none;fill-rule:evenodd;stroke:#000;stroke-width:1px;stroke-linecap:butt;stroke-linejoin:miter;stroke-opacity:1;marker-end:url(#Arrow1Lend-05)" id="path3365-54" d="m 129.39596,59.331743 60.71428,46.428567"/><path style="fill:none;fill-rule:evenodd;stroke:#000;stroke-width:1px;stroke-linecap:butt;stroke-linejoin:miter;stroke-opacity:1;marker-end:url(#Arrow1Lend-05-8)" id="path3365-54-2" d="m 269.39596,50.760317 -9.28572,56.428563"/><path style="fill:none;fill-rule:evenodd;stroke:#000;stroke-width:1px;stroke-linecap:butt;stroke-linejoin:miter;stroke-opacity:1;marker-end:url(#Arrow1Lend-05-0)" id="path3365-54-7" d="m 389.39596,59.331746 60.71428,46.428564"/><path style="fill:none;fill-rule:evenodd;stroke:#000;stroke-width:1px;stroke-linecap:butt;stroke-linejoin:miter;stroke-opacity:1;marker-end:url(#Arrow1Lend-05-6)" id="path3365-54-6" d="m 588.68167,60.046032 -60,47.857138"/><path style="fill:none;fill-rule:evenodd;stroke:#000;stroke-width:1px;stroke-linecap:butt;stroke-linejoin:miter;stroke-opacity:1;marker-end:url(#Arrow1Lend-05-9)" id="path3365-54-70" d="M 540.11025,40.046032 500.82453,107.18888"/><text xml:space="preserve" style="font-style:normal;font-weight:400;font-size:22px;line-height:125%;font-family:Sans;text-align:center;letter-spacing:0;word-spacing:0;text-anchor:middle;fill:#000;fill-opacity:1;stroke:none;stroke-width:1px;stroke-linecap:butt;stroke-linejoin:miter;stroke-opacity:1" id="text3357-4" x="248.644" y="524.058"><tspan id="tspan3359-9" x="248.644" y="524.058">Commit</tspan><tspan id="tspan10122" x="248.644" y="551.558">Tx A</tspan></text><path style="fill:none;fill-rule:evenodd;stroke:#000;stroke-width:1px;stroke-linecap:butt;stroke-linejoin:miter;stroke-opacity:1;marker-end:url(#Arrow1Lend-5-9)" id="path3365-0-6" d="m 330.30541,428.44053 -90.38869,-0.71429 -1e-5,50"/><text xml:space="preserve" style="font-style:normal;font-weight:400;font-size:15px;line-height:125%;font-family:Sans;text-align:center;letter-spacing:0;word-spacing:0;text-anchor:middle;fill:#000;fill-opacity:1;stroke:none;stroke-width:1px;stroke-linecap:butt;stroke-linejoin:miter;stroke-opacity:1" id="text12703" x="241.403" y="166.806"><tspan x="241.403" y="166.806" style="font-weight:400" id="tspan3422">SIGA &amp; SIGB</tspan></text><rect style="opacity:1;fill:none;fill-opacity:1;stroke:#000;stroke-width:3;stroke-linecap:round;stroke-linejoin:round;stroke-miterlimit:4;stroke-dasharray:none;stroke-dashoffset:0;stroke-opacity:1" id="rect3338-0-3" width="120" height="100" x="411.014" y="480.664"/><text xml:space="preserve" style="font-style:normal;font-weight:400;font-size:22px;line-height:125%;font-family:Sans;text-align:center;letter-spacing:0;word-spacing:0;text-anchor:middle;fill:#000;fill-opacity:1;stroke:none;stroke-width:1px;stroke-linecap:butt;stroke-linejoin:miter;stroke-opacity:1" id="text3357-4-5" x="470.665" y="525.271"><tspan id="tspan3359-9-5" x="470.665" y="525.271">Commit</tspan><tspan id="tspan10122-5" x="470.665" y="552.771">Tx B</tspan></text><circle style="opacity:1;fill:none;fill-opacity:1;stroke:#000;stroke-width:3;stroke-linecap:round;stroke-linejoin:round;stroke-miterlimit:4;stroke-dasharray:none;stroke-dashoffset:0;stroke-opacity:1" id="path13694" cx="359.396" cy="439.332" r="30"/><path style="fill:none;fill-rule:evenodd;stroke:#000;stroke-width:1px;stroke-linecap:butt;stroke-linejoin:miter;stroke-opacity:1" id="path13702" d="m 359.39595,409.33174 0,60"/><path style="fill:none;fill-rule:evenodd;stroke:#000;stroke-width:1px;stroke-linecap:butt;stroke-linejoin:miter;stroke-opacity:1" id="path13704" d="m 329.39595,439.33174 60,0"/><path style="fill:none;fill-rule:evenodd;stroke:#000;stroke-width:1px;stroke-linecap:butt;stroke-linejoin:miter;stroke-opacity:1;marker-end:url(#Arrow1Lend-5-9-3)" id="path3365-0-6-4" d="m 330.30541,448.44053 -70.38869,0 -10e-6,29.28571"/><path style="fill:none;fill-rule:evenodd;stroke:#000;stroke-width:1px;stroke-linecap:butt;stroke-linejoin:miter;stroke-opacity:1;marker-end:url(#Arrow1Lend-5-9-8)" id="path3365-0-6-44" d="m 387.76695,428.44053 90.38869,-0.71429 10e-6,50"/><path style="fill:none;fill-rule:evenodd;stroke:#000;stroke-width:1px;stroke-linecap:butt;stroke-linejoin:miter;stroke-opacity:1;marker-end:url(#Arrow1Lend-5-9-3-3)" id="path3365-0-6-4-6" d="m 387.76695,448.44053 70.38869,0 10e-6,29.28571"/><flowRoot id="flowRoot3465" xml:space="preserve" style="fill:#000;stroke:none;stroke-opacity:1;stroke-width:1px;stroke-linejoin:miter;stroke-linecap:butt;fill-opacity:1;font-family:Sans;font-style:normal;font-weight:400;font-size:15px;line-height:125%;letter-spacing:0;word-spacing:0"><flowRegion id="flowRegion3467"><rect id="rect3469" width="110" height="25" x="240" y="187.362"/></flowRegion><flowPara id="flowPara3471"/></flowRoot><text xml:space="preserve" style="font-style:normal;font-weight:400;font-size:15px;line-height:125%;font-family:Sans;letter-spacing:0;word-spacing:0;fill:#000;fill-opacity:1;stroke:none;stroke-width:1px;stroke-linecap:butt;stroke-linejoin:miter;stroke-opacity:1" id="text3473" x="209.799" y="496.352"><tspan id="tspan3475" x="209.799" y="496.352">SIG A &amp; B</tspan></text><text xml:space="preserve" style="font-style:normal;font-weight:400;font-size:15px;line-height:125%;font-family:Sans;letter-spacing:0;word-spacing:0;fill:#000;fill-opacity:1;stroke:none;stroke-width:1px;stroke-linecap:butt;stroke-linejoin:miter;stroke-opacity:1" id="text3473-6" x="432.477" y="498.372"><tspan id="tspan3475-5" x="432.477" y="498.372">SIG A &amp; B</tspan></text><text xml:space="preserve" style="font-style:normal;font-weight:400;font-size:15px;line-height:125%;font-family:Sans;text-align:center;letter-spacing:0;word-spacing:0;text-anchor:middle;fill:#000;fill-opacity:1;stroke:none;stroke-width:1px;stroke-linecap:butt;stroke-linejoin:miter;stroke-opacity:1" id="text12703-7" x="497.816" y="167.413"><tspan x="497.816" y="167.413" style="font-weight:400" id="tspan3422-8">SIGA &amp; SIGB</tspan></text></g></svg>