<svg xmlns="http://www.w3.org/2000/svg" xmlns:svg="http://www.w3.org/2000/svg" id="svg2" width="750.371" height="578.528" version="1.1" viewBox="0 0 703.472 542.37"><defs id="defs4"><marker id="marker4423" orient="auto" refX="0" refY="0" style="overflow:visible"><path id="path4425" d="M 0,0 5,-5 -12.5,0 5,5 0,0 Z" style="fill:#000;fill-opacity:1;fill-rule:evenodd;stroke:#000;stroke-width:1pt;stroke-opacity:1" transform="matrix(-0.8,0,0,-0.8,-10,0)"/></marker><marker id="Arrow1Lend-0" orient="auto" refX="0" refY="0" style="overflow:visible"><path id="path4174-1" d="M 0,0 5,-5 -12.5,0 5,5 0,0 Z" style="fill:#000;fill-opacity:1;fill-rule:evenodd;stroke:#000;stroke-width:1pt;stroke-opacity:1" transform="matrix(-0.8,0,0,-0.8,-10,0)"/></marker><marker id="Arrow1Lend-4" orient="auto" refX="0" refY="0" style="overflow:visible"><path id="path4174-19" d="M 0,0 5,-5 -12.5,0 5,5 0,0 Z" style="fill:#000;fill-opacity:1;fill-rule:evenodd;stroke:#000;stroke-width:1pt;stroke-opacity:1" transform="matrix(-0.8,0,0,-0.8,-10,0)"/></marker><marker id="Arrow1Lend-5-9" orient="auto" refX="0" refY="0" style="overflow:visible"><path id="path4174-0-3" d="M 0,0 5,-5 -12.5,0 5,5 0,0 Z" style="fill:#000;fill-opacity:1;fill-rule:evenodd;stroke:#000;stroke-width:1pt;stroke-opacity:1" transform="matrix(-0.8,0,0,-0.8,-10,0)"/></marker><marker id="Arrow1Lend-5-9-3" orient="auto" refX="0" refY="0" style="overflow:visible"><path id="path4174-0-3-3" d="M 0,0 5,-5 -12.5,0 5,5 0,0 Z" style="fill:#000;fill-opacity:1;fill-rule:evenodd;stroke:#000;stroke-width:1pt;stroke-opacity:1" transform="matrix(-0.8,0,0,-0.8,-10,0)"/></marker><marker id="Arrow1Lend-5-9-3-3" orient="auto" refX="0" refY="0" style="overflow:visible"><path id="path4174-0-3-3-2" d="M 0,0 5,-5 -12.5,0 5,5 0,0 Z" style="fill:#000;fill-opacity:1;fill-rule:evenodd;stroke:#000;stroke-width:1pt;stroke-opacity:1" transform="matrix(-0.8,0,0,-0.8,-10,0)"/></marker><marker id="Arrow1Lend-5-9-8" orient="auto" refX="0" refY="0" style="overflow:visible"><path id="path4174-0-3-9" d="M 0,0 5,-5 -12.5,0 5,5 0,0 Z" style="fill:#000;fill-opacity:1;fill-rule:evenodd;stroke:#000;stroke-width:1pt;stroke-opacity:1" transform="matrix(-0.8,0,0,-0.8,-10,0)"/></marker><marker style="overflow:visible" id="marker5093-1" orient="auto" refX="0" refY="0"><path transform="matrix(-0.8,0,0,-0.8,-10,0)" style="fill:#000;fill-opacity:1;fill-rule:evenodd;stroke:#000;stroke-width:1pt;stroke-opacity:1" id="path5095-9" d="M 0,0 5,-5 -12.5,0 5,5 0,0 Z"/></marker><marker id="marker4423-5" orient="auto" refX="0" refY="0" style="overflow:visible"><path id="path4425-3" d="M 0,0 5,-5 -12.5,0 5,5 0,0 Z" style="fill:#000;fill-opacity:1;fill-rule:evenodd;stroke:#000;stroke-width:1pt;stroke-opacity:1" transform="matrix(-0.8,0,0,-0.8,-10,0)"/></marker><marker id="marker4423-4" orient="auto" refX="0" refY="0" style="overflow:visible"><path id="path4425-6" d="M 0,0 5,-5 -12.5,0 5,5 0,0 Z" style="fill:#000;fill-opacity:1;fill-rule:evenodd;stroke:#000;stroke-width:1pt;stroke-opacity:1" transform="matrix(-0.8,0,0,-0.8,-10,0)"/></marker><marker id="marker4423-4-0" orient="auto" refX="0" refY="0" style="overflow:visible"><path id="path4425-6-6" d="M 0,0 5,-5 -12.5,0 5,5 0,0 Z" style="fill:#000;fill-opacity:1;fill-rule:evenodd;stroke:#000;stroke-width:1pt;stroke-opacity:1" transform="matrix(-0.8,0,0,-0.8,-10,0)"/></marker><marker id="Arrow1Lend-5-9-3-7" orient="auto" refX="0" refY="0" style="overflow:visible"><path id="path4174-0-3-3-3" d="M 0,0 5,-5 -12.5,0 5,5 0,0 Z" style="fill:#000;fill-opacity:1;fill-rule:evenodd;stroke:#000;stroke-width:1pt;stroke-opacity:1" transform="matrix(-0.8,0,0,-0.8,-10,0)"/></marker><marker id="marker4423-50" orient="auto" refX="0" refY="0" style="overflow:visible"><path id="path4425-7" d="M 0,0 5,-5 -12.5,0 5,5 0,0 Z" style="fill:#000;fill-opacity:1;fill-rule:evenodd;stroke:#000;stroke-width:1pt;stroke-opacity:1" transform="matrix(-0.8,0,0,-0.8,-10,0)"/></marker><marker id="Arrow1Lend-5-9-3-7-0" orient="auto" refX="0" refY="0" style="overflow:visible"><path id="path4174-0-3-3-3-0" d="M 0,0 5,-5 -12.5,0 5,5 0,0 Z" style="fill:#000;fill-opacity:1;fill-rule:evenodd;stroke:#000;stroke-width:1pt;stroke-opacity:1" transform="matrix(-0.8,0,0,-0.8,-10,0)"/></marker><marker id="Arrow1Lend-5-9-3-7-0-4" orient="auto" refX="0" refY="0" style="overflow:visible"><path id="path4174-0-3-3-3-0-0" d="M 0,0 5,-5 -12.5,0 5,5 0,0 Z" style="fill:#000;fill-opacity:1;fill-rule:evenodd;stroke:#000;stroke-width:1pt;stroke-opacity:1" transform="matrix(-0.8,0,0,-0.8,-10,0)"/></marker><marker id="Arrow1Lend-5-9-3-7-0-4-4" orient="auto" refX="0" refY="0" style="overflow:visible"><path id="path4174-0-3-3-3-0-0-1" d="M 0,0 5,-5 -12.5,0 5,5 0,0 Z" style="fill:#000;fill-opacity:1;fill-rule:evenodd;stroke:#000;stroke-width:1pt;stroke-opacity:1" transform="matrix(-0.8,0,0,-0.8,-10,0)"/></marker></defs><metadata id="metadata7"/><g id="layer1" transform="translate(-17.049686,-39.793526)"><rect style="opacity:1;fill:none;fill-opacity:1;stroke:#000;stroke-width:3;stroke-linecap:round;stroke-linejoin:round;stroke-miterlimit:4;stroke-dasharray:none;stroke-dashoffset:0;stroke-opacity:1" id="rect3338-0" width="120" height="100" x="188.993" y="122.867"/><text xml:space="preserve" style="font-style:normal;font-weight:400;font-size:22px;line-height:125%;font-family:Sans;text-align:center;letter-spacing:0;word-spacing:0;text-anchor:middle;fill:#000;fill-opacity:1;stroke:none;stroke-width:1px;stroke-linecap:butt;stroke-linejoin:miter;stroke-opacity:1" id="text3357-4" x="248.644" y="167.474"><tspan id="tspan3359-9" x="248.644" y="167.474">Commit</tspan><tspan id="tspan10122" x="248.644" y="194.974">Tx A</tspan></text><path style="fill:none;fill-rule:evenodd;stroke:#000;stroke-width:1px;stroke-linecap:butt;stroke-linejoin:miter;stroke-opacity:1;marker-end:url(#Arrow1Lend-5-9)" id="path3365-0-6" d="m 330.30541,71.85668 -90.38869,-0.71429 -1e-5,50"/><rect style="opacity:1;fill:none;fill-opacity:1;stroke:#000;stroke-width:3;stroke-linecap:round;stroke-linejoin:round;stroke-miterlimit:4;stroke-dasharray:none;stroke-dashoffset:0;stroke-opacity:1" id="rect3338-0-3" width="120" height="100" x="411.014" y="124.08"/><text xml:space="preserve" style="font-style:normal;font-weight:400;font-size:22px;line-height:125%;font-family:Sans;text-align:center;letter-spacing:0;word-spacing:0;text-anchor:middle;fill:#000;fill-opacity:1;stroke:none;stroke-width:1px;stroke-linecap:butt;stroke-linejoin:miter;stroke-opacity:1" id="text3357-4-5" x="470.665" y="168.688"><tspan id="tspan3359-9-5" x="470.665" y="168.688">Commit</tspan><tspan id="tspan10122-5" x="470.665" y="196.188">Tx B</tspan></text><circle style="opacity:1;fill:none;fill-opacity:1;stroke:#000;stroke-width:3;stroke-linecap:round;stroke-linejoin:round;stroke-miterlimit:4;stroke-dasharray:none;stroke-dashoffset:0;stroke-opacity:1" id="path13694" cx="359.396" cy="82.748" r="30"/><path style="fill:none;fill-rule:evenodd;stroke:#000;stroke-width:1px;stroke-linecap:butt;stroke-linejoin:miter;stroke-opacity:1" id="path13702" d="m 359.39595,52.74789 0,60"/><path style="fill:none;fill-rule:evenodd;stroke:#000;stroke-width:1px;stroke-linecap:butt;stroke-linejoin:miter;stroke-opacity:1" id="path13704" d="m 329.39595,82.74789 60,0"/><path style="fill:none;fill-rule:evenodd;stroke:#000;stroke-width:1px;stroke-linecap:butt;stroke-linejoin:miter;stroke-opacity:1;marker-end:url(#Arrow1Lend-5-9-3)" id="path3365-0-6-4" d="m 330.30541,91.85668 -70.38869,0 -10e-6,29.28571"/><path style="fill:none;fill-rule:evenodd;stroke:#000;stroke-width:1px;stroke-linecap:butt;stroke-linejoin:miter;stroke-opacity:1;marker-end:url(#Arrow1Lend-5-9-8)" id="path3365-0-6-44" d="m 387.76695,71.85668 90.38869,-0.71429 10e-6,50"/><path style="fill:none;fill-rule:evenodd;stroke:#000;stroke-width:1px;stroke-linecap:butt;stroke-linejoin:miter;stroke-opacity:1;marker-end:url(#Arrow1Lend-5-9-3-3)" id="path3365-0-6-4-6" d="m 387.76695,91.85668 70.38869,0 10e-6,29.28571"/><flowRoot id="flowRoot3465" xml:space="preserve" style="font-style:normal;font-weight:400;font-size:15px;line-height:125%;font-family:Sans;letter-spacing:0;word-spacing:0;fill:#000;fill-opacity:1;stroke:none;stroke-width:1px;stroke-linecap:butt;stroke-linejoin:miter;stroke-opacity:1"><flowRegion id="flowRegion3467"><rect id="rect3469" width="110" height="25" x="240" y="187.362"/></flowRegion><flowPara id="flowPara3471"/></flowRoot><text xml:space="preserve" style="font-style:normal;font-weight:400;font-size:15px;line-height:125%;font-family:Sans;letter-spacing:0;word-spacing:0;fill:#000;fill-opacity:1;stroke:none;stroke-width:1px;stroke-linecap:butt;stroke-linejoin:miter;stroke-opacity:1" id="text3473" x="209.799" y="139.768"><tspan id="tspan3475" x="209.799" y="139.768">SIG A &amp; B</tspan></text><text xml:space="preserve" style="font-style:normal;font-weight:400;font-size:15px;line-height:125%;font-family:Sans;letter-spacing:0;word-spacing:0;fill:#000;fill-opacity:1;stroke:none;stroke-width:1px;stroke-linecap:butt;stroke-linejoin:miter;stroke-opacity:1" id="text3473-6" x="432.477" y="141.788"><tspan id="tspan3475-5" x="432.477" y="141.788">SIG A &amp; B</tspan></text><flowRoot id="flowRoot3480" xml:space="preserve" style="fill:#000;stroke:none;stroke-opacity:1;stroke-width:1px;stroke-linejoin:miter;stroke-linecap:butt;fill-opacity:1;font-family:Sans;font-style:normal;font-weight:400;font-size:15px;line-height:125%;letter-spacing:0;word-spacing:0"><flowRegion id="flowRegion3482"><rect id="rect3484" width="40" height="60" x="122.95" y="292.569"/></flowRegion><flowPara id="flowPara3486"/></flowRoot><path style="fill:none;fill-rule:evenodd;stroke:#000;stroke-width:1px;stroke-linecap:butt;stroke-linejoin:miter;stroke-opacity:1;marker-end:url(#Arrow1Lend-5-9-3-7)" id="path3365-0-6-4-65" d="m 209.99063,222.86173 0.16099,20.20305 -69.53953,0 -1e-5,29.28571"/><text xml:space="preserve" style="font-style:normal;font-weight:400;font-size:15px;line-height:125%;font-family:Sans;letter-spacing:0;word-spacing:0;fill:#000;fill-opacity:1;stroke:none;stroke-width:1px;stroke-linecap:butt;stroke-linejoin:miter;stroke-opacity:1" id="text3514" x="110" y="282.362"><tspan id="tspan3516" x="110" y="282.362">SIG B</tspan></text><path style="fill:none;fill-rule:evenodd;stroke:#000;stroke-width:1px;stroke-linecap:butt;stroke-linejoin:miter;stroke-opacity:1;marker-end:url(#marker4423)" id="path3539" d="m 250,222.36219 0,70"/><text xml:space="preserve" style="font-style:normal;font-weight:400;font-size:15px;line-height:125%;font-family:Sans;text-align:center;letter-spacing:0;word-spacing:0;text-anchor:middle;fill:#000;fill-opacity:1;stroke:none;stroke-width:1px;stroke-linecap:butt;stroke-linejoin:miter;stroke-opacity:1" id="text3514-9" x="227.122" y="310.342"><tspan id="tspan3516-2" x="227.122" y="310.342">REVOCATION-A &amp; SIG B</tspan><tspan id="tspan4443" x="227.122" y="329.092" style="font-weight:700">OR</tspan><tspan id="tspan4445" x="227.122" y="347.842">OP_CSV &amp; SIG A</tspan></text><path style="fill:none;fill-rule:evenodd;stroke:#000;stroke-width:1px;stroke-linecap:butt;stroke-linejoin:miter;stroke-opacity:1;marker-end:url(#Arrow1Lend-5-9-3-7-0)" id="path3365-0-6-4-65-1" d="m 521.01751,222.86173 -0.16099,20.20305 69.53953,0 1e-5,29.28571"/><text xml:space="preserve" style="font-style:normal;font-weight:400;font-size:15px;line-height:125%;font-family:Sans;letter-spacing:0;word-spacing:0;fill:#000;fill-opacity:1;stroke:none;stroke-width:1px;stroke-linecap:butt;stroke-linejoin:miter;stroke-opacity:1" id="text3514-1" x="569.503" y="288.423"><tspan id="tspan3516-9" x="569.503" y="288.423">SIG A</tspan></text><path style="fill:none;fill-rule:evenodd;stroke:#000;stroke-width:1px;stroke-linecap:butt;stroke-linejoin:miter;stroke-opacity:1;marker-end:url(#marker4423-50)" id="path3539-3" d="m 469.08628,226.4028 0,70.00001"/><text xml:space="preserve" style="font-style:normal;font-weight:400;font-size:15px;line-height:125%;font-family:Sans;text-align:center;letter-spacing:0;word-spacing:0;text-anchor:middle;fill:#000;fill-opacity:1;stroke:none;stroke-width:1px;stroke-linecap:butt;stroke-linejoin:miter;stroke-opacity:1" id="text3514-9-2" x="518.94" y="315.393"><tspan id="tspan3516-2-9" x="518.94" y="315.393">REVOCATION-B &amp; SIG A</tspan><tspan id="tspan4443-9" x="518.94" y="334.143" style="font-weight:700">OR</tspan><tspan id="tspan4445-8" x="518.94" y="352.893">OP_CSV &amp; SIG B</tspan></text><path style="fill:none;fill-rule:evenodd;stroke:#000;stroke-width:1px;stroke-linecap:butt;stroke-linejoin:miter;stroke-opacity:1;marker-end:url(#Arrow1Lend-5-9-3-7-0-4)" id="path3365-0-6-4-65-1-2" d="m 280.21041,224.98356 -0.16099,20.20305 38.2248,0 10e-6,154.54462"/><text xml:space="preserve" style="font-style:normal;font-weight:400;font-size:15px;line-height:125%;font-family:Sans;text-align:center;letter-spacing:0;word-spacing:0;text-anchor:middle;fill:#000;fill-opacity:1;stroke:none;stroke-width:1px;stroke-linecap:butt;stroke-linejoin:miter;stroke-opacity:1" id="text7529" x="259.669" y="418.829"><tspan id="tspan7531" x="259.669" y="418.829">R-VALUE &amp; SIG-PAYEE</tspan><tspan id="tspan7533" x="259.669" y="437.579" style="font-weight:700">OR</tspan><tspan id="tspan7535" x="259.669" y="456.329">HTLC-TIMEOUT &amp; SIG-PAYER</tspan><tspan id="tspan7537" x="259.669" y="475.079" style="font-weight:700">OR</tspan><tspan id="tspan7539" x="259.669" y="493.829">REVOCATION-A &amp; SIG B</tspan></text><path style="fill:none;fill-rule:evenodd;stroke:#000;stroke-width:1px;stroke-linecap:butt;stroke-linejoin:miter;stroke-opacity:1;marker-end:url(#Arrow1Lend-5-9-3-7-0-4-4)" id="path3365-0-6-4-65-1-2-8" d="m 448.68611,224.37951 0.16099,20.20305 -38.2248,0 -10e-6,154.54462"/><text xml:space="preserve" style="font-style:normal;font-weight:400;font-size:15px;line-height:125%;font-family:Sans;text-align:center;letter-spacing:0;word-spacing:0;text-anchor:middle;fill:#000;fill-opacity:1;stroke:none;stroke-width:1px;stroke-linecap:butt;stroke-linejoin:miter;stroke-opacity:1" id="text7529-2" x="497.852" y="416.814"><tspan id="tspan7531-6" x="497.852" y="416.814">R-VALUE &amp; SIG-PAYEE</tspan><tspan id="tspan7533-4" x="497.852" y="435.564" style="font-weight:700">OR</tspan><tspan id="tspan7535-9" x="497.852" y="454.314">HTLC-TIMEOUT &amp; SIG-PAYER</tspan><tspan id="tspan7537-1" x="497.852" y="473.064" style="font-weight:700">OR</tspan><tspan id="tspan7539-2" x="497.852" y="491.814">REVOCATION-B &amp; SIG A</tspan></text></g></svg>